<svg xmlns="http://www.w3.org/2000/svg" xmlns:xlink="http://www.w3.org/1999/xlink" width="500" height="500" viewBox="0 0 200 200" overflow="hidden!important" xmlns:v="https://vecta.io/nano"><style><![CDATA[.B{fill:#764630}.C{fill:#481c08}.D{stroke:#481c08}.E{stroke-width:1.5}.F{stroke:#152975}.G{fill:#2a232b}.H{stroke-width:.75}]]></style><defs><radialGradient id="A" cx="100" cy="114" r="41" xlink:href="#R"><stop stop-opacity=".5" stop-color="#855844" offset="0"/><stop stop-opacity="0" stop-color="#764630" offset=".9"/></radialGradient><radialGradient id="B" cx="100" cy="54" r="37" xlink:href="#R"><stop stop-opacity=".5" stop-color="#855844" offset="0"/><stop stop-opacity="0" stop-color="#764630" offset=".9"/></radialGradient><linearGradient id="C" x1="100" y1="142" x2="100" y2="139" xlink:href="#R"><stop stop-color="#6e3e27" offset=".1"/><stop stop-color="#673620" offset="1"/></linearGradient><linearGradient id="D" x1="100" y1="172" x2="100" y2="122" xlink:href="#R"><stop stop-opacity=".8" stop-color="#673620" offset="0"/><stop stop-color="#481c08" offset=".7"/></linearGradient><radialGradient id="E" cx="125.861" cy="84.497" r="10.213" gradientTransform="matrix(-1 0 0 1 200 0)" xlink:href="#R"><stop stop-color="#fff" offset="0"/><stop stop-color="#fdfefe" offset=".544"/><stop stop-color="#f6f8f9" offset=".74"/><stop stop-color="#eaeff2" offset=".879"/><stop stop-color="#d9e3e8" offset=".992"/><stop stop-color="#d8e2e7" offset="1"/></radialGradient><radialGradient id="F" cx="125.861" cy="84.497" r="10.213" xlink:href="#R"><stop stop-color="#fff" offset="0"/><stop stop-color="#fdfefe" offset=".544"/><stop stop-color="#f6f8f9" offset=".74"/><stop stop-color="#eaeff2" offset=".879"/><stop stop-color="#d9e3e8" offset=".992"/><stop stop-color="#d8e2e7" offset="1"/></radialGradient><radialGradient id="G" cx="123.755" cy="83.738" fx="136.189" fy="83.773" r="17.684" gradientTransform="matrix(0.9998 0.0208 0.0166 -0.7998 -48.8769 148.1393)" xlink:href="#R"><stop stop-color="#673620" offset="0"/><stop stop-opacity=".3" stop-color="#673620" offset=".7"/><stop stop-opacity="0" stop-color="#764630" offset="1"/></radialGradient><radialGradient id="H" cx="122.636" cy="100.958" r="25.824" gradientTransform="matrix(-0.8746,-0.4848,-0.3636,0.656,221.3328,94.1879)" xlink:href="#R"><stop stop-opacity="0" offset=".94"/><stop stop-opacity=".2" offset="1"/></radialGradient><radialGradient id="I" cx="123.755" cy="83.738" fx="136.19" fy="83.773" r="17.685" gradientTransform="matrix(-0.9998 0.0208 -0.0166 -0.7998 248.8769 148.1393)" xlink:href="#R"><stop stop-color="#673620" offset="0"/><stop stop-opacity=".3" stop-color="#673620" offset=".7"/><stop stop-opacity="0" stop-color="#764630" offset="1"/></radialGradient><radialGradient id="J" cx="122.636" cy="100.958" r="25.824" gradientTransform="matrix(0.8746,-0.4848,0.3636,0.656,-21.3328,94.1879)" xlink:href="#R"><stop stop-opacity="0" offset=".94"/><stop stop-opacity=".2" offset="1"/></radialGradient><path id="K" d="M195.417 199.778c-2.196-4.746-8.195-11.779-14.86-13.722-8.239-2.403-26.837-5.308-33.733-6.923-5.528-1.296-16.662-11.294-20.564-14.65-.7-.6-1.273-1.839-1.287-2.76-.139-10.864 4.195-39.724 4.195-39.724H100 70.833s4.334 28.859 4.193 39.724c-.011.921-.587 2.16-1.285 2.76-3.902 3.356-15.036 13.354-20.564 14.65-6.897 1.615-25.495 4.619-33.733 7.022-6.667 1.942-12.664 8.876-14.86 13.622-3.708 8.008-4.584 22.5-4.584 35h100 100c0-12.499-.877-26.991-4.583-34.999z"/><path id="L" d="M100.002.867C66.384.92 39.082 28.536 39.134 62.56c.009 5.403.704 10.643 2.002 15.634h.001c.012.054 8.341 20.48 10.463 33.205 2.38 14.276 10.462 30.232 16.302 35.786 6.052 5.756 20.281 14.682 32.099 14.682 11.267 0 26.046-8.926 32.099-14.682 5.84-5.554 13.922-21.51 16.302-35.786 2.122-12.725 10.452-33.151 10.463-33.205h.002c1.298-4.992 1.994-10.231 2.002-15.634C160.923 28.536 133.62.92 100.002.867z"/><path id="M" d="M82.5 130.299s12.532 1.486 16.718 1.499c4.553.012 19.282-1.499 19.282-1.499-4.258 3.534-8.943 6.932-19.555 6.999-9.492.061-11.924-3.386-16.445-6.999z"/><path id="N" d="M60.942 83.152c-.216 2.76 1.682 6.038 12.492 6.964 9.553.818 13.62-.758 13.903-3.902s-3.407-6.987-12.88-7.482c-8.431-.44-13.269 1.273-13.515 4.42z"/><path id="O" d="M75.584 81.064c-1.65-.6-3.334.599-3.76 2.69-.426 2.081.567 4.26 2.217 4.861s3.333-.598 3.764-2.68c.428-2.09-.568-4.268-2.221-4.871z"/><path id="P" d="M139.059 83.152c.216 2.76-1.682 6.038-12.492 6.964-9.553.818-13.62-.758-13.903-3.902s3.407-6.987 12.88-7.482c8.431-.44 13.269 1.273 13.515 4.42z"/><path id="Q" d="M126.584 81.064c-1.65-.6-3.335.599-3.76 2.69-.427 2.081.567 4.26 2.217 4.861s3.334-.598 3.765-2.68c.427-2.09-.57-4.268-2.222-4.871z"/><linearGradient id="R" gradientUnits="userSpaceOnUse"/></defs><g transform="matrix(.95 0 0 .95 4.993094 5.885948)"><path d="M100.5 100.5h-1v-1h1v1z" class="G"/><use xlink:href="#K" class="B"/><path d="M159.156 184.058c24.342 3.542 34.586 8.708 37.794 50.721H200c0-12.5-.877-26.992-4.583-35-2.196-4.746-8.195-11.779-14.86-13.722-8.239-2.403-26.837-5.308-33.733-6.923-5.528-1.296-18.242-12.069-21.643-16.35 3.36 4.704 12.791 15.605 21.054 18.46 3.953 1.366 7.245 1.988 12.921 2.814zm-105.39-2.814c8.263-2.854 17.693-13.756 21.054-18.46-3.4 4.28-16.114 15.054-21.643 16.35-6.896 1.615-25.494 4.619-33.733 7.022-6.665 1.942-12.664 8.876-14.86 13.622-3.706 8.008-4.583 22.5-4.583 35h3.05c3.188-41.744 13.475-47.183 37.794-50.721 5.675-.825 8.968-1.447 12.921-2.813z" fill="#855844"/><path d="M95.646 197.62l-7.083-2.379c-10.449-4.009-44.395-6.607-44.395-6.607s35.754 1.419 43.644 2.779c-.458-4.767-3.017-20.004-3.017-20.004l6.409 21.057c.674 2.268 4.442 5.154 4.442 5.154zm10.799-1.342c-.089.073-.191.168-.302.268a2.27 2.27 0 0 0 .302-.268zm-10.799 1.342s2.893 2.992 4.347 3.03c1.91.051 4.828-2.899 6.151-4.104-1.265.957-4.159 1.391-5.31 1.436-1.33.051-5.188-.362-5.188-.362zm21.018-7.519c-1.545.248-4.386.789-4.386.789l2.287-14.89c-.646 3.071-4.474 16.211-8.12 20.278 1.91-1.616 6.158-2.391 8.324-2.704 10.236-1.484 10.232-1.483 41.062-4.94 0 0-29.071-.155-39.167 1.467z" fill="#673620"/><use xlink:href="#K" fill="none" class="D E"/><path d="M75.517 163.052c6.979 4.54 16.307 8.814 24.485 8.814 7.828 0 17.345-4.309 24.458-8.869-.145-.428-.233-.862-.239-1.264-.126-9.877 3.345-34.021 4.076-38.983H71.703c.73 4.963 4.202 29.106 4.074 38.982-.005.414-.101.871-.26 1.32z" fill="url(#D)"/><path d="M-.35 235.399c-5.397-68.442 34.095-42.726 62.751-62.455.43-2.869 2.012-4.49 4.209-6.688 8.539-8.537 3.556-12.475 6.837-16.225l.203 2.609c14.335 15.54 41.122 21.975 52.534 1.957.057-1.388.281-4.84.455-6.532 2.596 1.968 2.467 4.504 2.671 7.165.952 12.423 8.132 15.523 9.356 18.519 29.112 18.84 64.362-8.488 61.582 61.22-10.144.431-117.705 1.114-200.598.43z" fill="#335529"/><path d="M200.249 234.97l-2.165.064c-.741-12.615-1.118-25.424-8.084-37.034-10-16-30-10-46-18-12.592-5.396-14.666-18.072-15.685-30.026.869 1.59.853 3.393.995 5.258.952 12.423 8.132 15.523 9.356 18.519 29.113 18.839 64.363-8.489 61.583 61.219zM12 194.805c11.883-11.718 38-5.801 51-20.801 2.369-5.019 8.619-7.769 9.354-21.899-.828 3.247 1.257 7.153-5.743 14.152-2.197 2.197-3.779 3.818-4.209 6.688C33.746 192.674-5.746 166.958-.349 235.4l1.432.012C.058 220.805 2.523 204.149 12 194.805zm61.869-28.07c14.154 9.8 28.403 14.222 47.5 6.75-22.797 6.829-35.519.334-47.5-6.75zm19.226 3.855c12.673 4 24.608 2.148 35.774-6.604-11.458 7.188-22.001 10.013-35.774 6.604zm-25.309 6.367c11.886 10.565 44.754 17.908 69.083-1.222-25.199 17.269-57.344 10.657-69.083 1.222zm18.423 3.151c16.699 7.246 43.293-.997 47.602-5.373-4.579 3.915-32.412 10.814-47.602 5.373z" fill="#44643a"/><path d="M139.439 173.615h-.011l-.359-.2c-.018-.054-.39-.846-.851-1.3-13.21-13.021-4.921-19.103-11.609-24.479-.035.62-.531 4.908-.62 6.819-11.334 19.824-38.513 12.837-52.13-1.939l-.29-3.221c-1.843 1.843-2.156 3.686-2.122 6.281.117 9.025-8.533 10.548-9.508 17.079-28.303 19.487-68.409-6.355-62.75 63.24l201.541-.45c2.842-67.821-27.669-44.066-61.291-61.83zm-12.7-25.25c.092.092.661.819 1.11 1.521-.366 1-.638 2.347-1.53 3.93l.42-5.451zm-53.36 1.851l.16 1.949-.82-.88a7.6 7.6 0 0 1 .66-1.069zm-7.52 16.859c18.439 21.978 40.26 18.955 62.26 11.08-30.612 9.414-44.329 5.81-61.99-11.37 7.46-6.32 5.691-8.829 6.35-15.01 20.39 23.21 50.375 17.96 55.81-1.13h.01c1.958 11.071-2.637 8.336 10.301 23.06-12.049 15.935-54.963 20.369-76.121-.739.425-2.55 1.577-4.025 3.38-5.891zM.109 234.838c-.109-69.468 32.76-38.603 61.95-61.634 18.395 20.038 59.684 22.314 76.89.892 24.883 17.816 61.965-6.61 60.533 60.223-58.531-.406-133.696-.201-199.373.519zm120.82-60.532c-5.603 3.779-29.402 8.238-44-5.38h-.01l-.07-.061c.235.061.513.131.73.46-.01-.01-.03-.03-.06-.05-.085-.105-.354-.32-.5-.32 26.697 17.914 53.297.02 43.91 5.351zm7.16-9.641c-17.654 15.185-38.134 9.989-54.24-3.34 15.807 11.395 35.047 16.471 54.24 3.34z" fill="#0e2707"/><path d="M47.001 83.231c-1.376-2.453-5.638-8.48-9.98-7.003-2.749.935-3.293 3.993-3.735 6.693-.588 3.591.471 10.694 1.389 13.26.881 2.467 3.533 7.23 5.264 9.045 2.13 2.225 4.775 9.324 5.194 10.061.66 1.162 1.536 2.911 4.122 2.692 2.853-.244 4.584-1.85 5.856-2.121 3.142-.666-4.529-26.242-8.11-32.627z" class="B D E"/><path d="M44.197 98.104c-.132-.581.007-1.56.142-2.504.124-.861.24-1.675.169-2.251-.267-2.154-1.773-6.249-2.757-8.467-1.132-2.554-2.963-5.77-5.262-6.599-.95-.343-1.575.067-1.938.484-.266.305-.325.665-.238.707s.285-.254.572-.535a1.3 1.3 0 0 1 1.051-.385c-.19 1.073-1.167 6.883-.744 10.845.333 3.115 1.593 5.442 1.79 5.791.029.367.077.726.148 1.075.929 4.547 4.971 9.717 6.378 11.409.259.313.531.497.598.423s-.094-.387-.353-.7c-1.388-1.679-5.391-6.831-6.289-11.218-.952-4.656 2.318-11.556 3.048-13.017.371.685.687 1.344.93 1.893a46.61 46.61 0 0 1 .619 1.479c-.429.762-3.434 6.32-2.338 10.767.406 1.641 2.235 3.755 3.447 4.333.667.32.919.797 1.209 1.349.336.64.718 1.365 1.828 1.892.225.108.429.151.61.151a1.06 1.06 0 0 0 .725-.293 11.84 11.84 0 0 1 .009.97c-.012.431.042.783.137.791s.196-.332.207-.76c.016-.526.013-1.177-.072-1.488-.248-.917-1.008-1.953-1.813-3.048-.789-1.082-1.607-2.195-1.813-3.094zm-7.247-4.031c-2.177-7.139.656-13.3 1.144-14.28.85.822 1.6 1.919 2.21 2.995-.444.858-3.263 6.483-3.354 11.285zm9.391 10.442c-1.004-.475-1.339-1.115-1.666-1.733-.293-.559-.598-1.136-1.369-1.505-.168-.081-.352-.203-.542-.343-2.486-6.263.272-9.001.963-9.562.211.766.369 1.468.439 2.031.063.517-.052 1.339-.167 2.134-.142.985-.286 2.004-.137 2.664.226.982 1.069 2.131 1.884 3.242.723.986 1.466 2.003 1.721 2.832-.108.164-.45.561-1.126.24z" class="C"/><path d="M152.736 83.231c1.377-2.453 5.639-8.48 9.98-7.003 2.75.935 3.293 3.993 3.736 6.693.588 3.591-.471 10.694-1.389 13.26-.881 2.467-3.533 7.23-5.266 9.045-2.129 2.225-4.775 9.324-5.193 10.061-.658 1.162-1.535 2.911-4.121 2.692-2.854-.244-4.584-1.85-5.857-2.121-3.142-.666 4.53-26.242 8.11-32.627z" class="B D E"/><path d="M153.727 101.196c-.805 1.096-1.564 2.131-1.813 3.048-.086.311-.088.962-.072 1.488.012.428.113.768.207.76s.148-.36.137-.791l.01-.97a1.06 1.06 0 0 0 .725.293c.182 0 .385-.043.609-.151 1.109-.526 1.492-1.252 1.828-1.892.289-.552.543-1.028 1.209-1.349 1.213-.578 3.041-2.692 3.447-4.333 1.096-4.447-1.908-10.005-2.338-10.767a46.99 46.99 0 0 1 .619-1.479 27.35 27.35 0 0 1 .93-1.893c.73 1.46 4 8.361 3.049 13.017-.896 4.387-4.9 9.539-6.289 11.218-.258.313-.418.624-.352.7s.338-.109.598-.423c1.406-1.692 5.449-6.862 6.379-11.409a9.15 9.15 0 0 0 .146-1.075c.197-.349 1.459-2.676 1.791-5.791.422-3.961-.555-9.772-.744-10.845.473-.042.814.156 1.051.385.287.281.486.577.572.535s.027-.402-.238-.707c-.363-.417-.988-.827-1.938-.484-2.299.83-4.131 4.045-5.262 6.599-.984 2.218-2.49 6.313-2.758 8.467-.072.576.045 1.39.17 2.251.135.945.273 1.924.141 2.504-.205.901-1.023 2.014-1.814 3.094zm5.707-18.409c.611-1.075 1.361-2.173 2.211-2.995.488.98 3.32 7.141 1.145 14.28-.093-4.801-2.911-10.426-3.356-11.285zm-7.164 21.488c.254-.829.998-1.846 1.721-2.832.816-1.111 1.658-2.26 1.885-3.242.148-.66.004-1.679-.137-2.664-.115-.795-.23-1.617-.166-2.134.068-.563.227-1.266.438-2.031.691.561 3.449 3.299.965 9.562a3.57 3.57 0 0 1-.543.343c-.771.369-1.074.946-1.369 1.505-.326.618-.662 1.258-1.666 1.733-.677.321-1.019-.076-1.128-.24z" class="C"/><use xlink:href="#L" class="B"/><path d="M136.901 13.53c12.866 11.318 21.063 28.416 21.036 47.539-.009 5.403-.671 10.642-1.906 15.634h-.001c-.011.054-7.939 20.48-9.959 33.205-2.267 14.277-9.959 30.233-15.517 35.786-5.761 5.757-19.828 14.683-30.552 14.683-11.249 0-24.792-8.926-30.552-14.683-5.558-5.553-13.25-21.509-15.516-35.786-2.02-12.724-9.948-33.15-9.959-33.205h-.001a65.4 65.4 0 0 1-1.906-15.634c-.028-19.122 8.168-36.218 21.033-47.537C48.519 24.809 39.104 42.574 39.134 62.56c.009 5.403.704 10.643 2.002 15.634h.001c.012.054 8.341 20.48 10.463 33.205 2.38 14.276 10.462 30.232 16.302 35.786 6.052 5.756 20.281 14.682 32.099 14.682 11.267 0 26.046-8.926 32.099-14.682 5.84-5.554 13.922-21.51 16.302-35.786 2.122-12.725 10.452-33.151 10.463-33.205h.002c1.298-4.992 1.994-10.231 2.002-15.634.032-19.987-9.384-37.754-23.968-49.03z" fill="#6e3e27"/><use xlink:href="#L" fill="none" class="D E"/><path d="M100.2 142.947c-2.832.144-3.644-2.753-3.644-2.753s3.931.565 6.991-.353c.001.001-.855 2.981-3.347 3.106z" fill="url(#C)"/><path d="M100.488 140.76c-1.984.1-3.765-.077-3.877-.089-.138-.014-.238-.136-.224-.272s.143-.233.274-.224c.041.003 4.096.405 6.738-.337.131-.032.271.041.309.174a.25.25 0 0 1-.173.308c-.934.262-2.018.388-3.047.44z" class="C"/><use xlink:href="#M" fill="#fff"/><use xlink:href="#M" fill="none" class="D H"/><use xlink:href="#N" fill="url(#E)"/><path d="M81.735 86.776c-1.086 5.079-5.203 8.071-9.202 6.676s-6.356-6.647-5.269-11.727 5.211-8.075 9.208-6.679 6.35 6.646 5.263 11.73z" fill="#4e60a3" stroke-width=".5" class="F"/><path d="M81.556 84.841c-.553 5.639-3.844 8.577-7.441 8.271-3.323-.285-6.293-3.404-6.57-8.791 1.15-.42 2.676.263 4.014.002-.003.062-.02.117-.021.18-.109 2.068 1.195 3.87 2.908 4.017 1.72.146 3.197-1.419 3.303-3.486.012-.269-.001-.534-.033-.789 1.193.23 2.653.004 3.84.596z" fill="#6777b2"/><use xlink:href="#O" opacity=".9"/><use xlink:href="#O" fill="none" class="F H"/><g fill="#fff"><path d="M70.951 90.068c-.157.695-1.008.399-.854-.298.153-.673.562-1.086.818-1.679.276-.633 1.039-.067.762.567-.212.489-.605.865-.726 1.41h0zm1.356-1.108c-.234.348-.542 1.638-.675 2.06-.211.672.642.961.851.298.073-.229.32-1.373.45-1.563.366-.547-.253-1.345-.626-.795h0zm1.839 3.321c.459-.676.413-1.45.403-2.292-.007-.723-.888-.724-.882 0 .007.465.115 1.114-.146 1.498-.371.544.25 1.342.625.794h0zm.899-2.432c.009.697.074 1.377.236 2.044.169.69 1.021.396.854-.298-.142-.576-.2-1.144-.205-1.746-.009-.724-.89-.724-.885 0h0z" opacity=".5"/><path d="M79.746 82.614c-.868.663-2.174.066-2.916-1.334s-.63-3.077.242-3.738c.868-.667 2.175-.068 2.91 1.333.743 1.402.636 3.075-.236 3.739z" opacity=".8"/></g><path d="M55.772 86.694c1.203 13.754 10.653 24.163 21.106 23.249S94.83 97.136 93.627 83.382 82.974 59.218 72.521 60.133 54.569 72.94 55.772 86.694zm5.17-3.542c.246-3.146 5.084-4.86 13.516-4.419 9.473.495 13.163 4.338 12.88 7.482s-4.351 4.72-13.903 3.902c-10.811-.927-12.709-4.205-12.493-6.965z" class="B"/><path d="M57.798 85.194c.596 7.711 10.263 13.338 19.882 12.458 9.616-.885 17.535-6.722 16.834-14.425s-9.053-13.224-18.673-12.342-18.861 3.762-18.043 14.309zm3.144-2.042c.246-3.146 5.084-4.86 13.516-4.419 9.473.495 13.163 4.338 12.88 7.482s-4.351 4.72-13.903 3.902c-10.811-.927-12.709-4.205-12.493-6.965z" fill="url(#G)"/><use xlink:href="#N" fill="url(#H)"/><path d="M85.569 79.486c-1.025-.673-3.285-1.602-3.285-1.602s2.571.588 3.59 1.279 2.082 2.366 2.082 2.366-1.362-1.37-2.387-2.043zM67.02 77.131s-2.657-.034-4.546 1.136c-1.734 1.074-2.448 2.685-2.448 2.685s1.649-1.725 2.813-2.501c1.088-.726 4.181-1.32 4.181-1.32z" class="C"/><path d="M74.758 78.929c-6.156-.216-15.613.376-13.409 6.209-3.203-1.934-.741-8.81 13.992-7.583 7.137.594 15.623 4.275 11.685 9.764 1.247-5.737-6.226-8.177-12.268-8.39zm10.865 10.083l-3.021.956c-5.294.085-8.251-.28-13.196-.504-2.279-.104-4.328-1.226-6.996-2.467 1.537 1.698 4.094 3.061 6.943 3.226 4.789.278 8.032.342 13.408.382l2.862-1.593z"/><use xlink:href="#P" fill="url(#F)"/><path d="M132.735 86.776c-1.086 5.079-5.202 8.071-9.201 6.676s-6.356-6.647-5.27-11.727 5.212-8.075 9.208-6.679 6.35 6.646 5.263 11.73z" fill="#4e60a3" stroke-width=".5" class="F"/><path d="M132.556 84.841c-.553 5.639-3.844 8.577-7.44 8.271-3.322-.285-6.294-3.404-6.57-8.791 1.151-.42 2.677.263 4.014.002-.003.062-.019.117-.021.18-.108 2.068 1.195 3.87 2.909 4.017 1.72.146 3.197-1.419 3.302-3.486.013-.269-.001-.534-.032-.789 1.191.23 2.651.004 3.838.596z" fill="#6777b2"/><use xlink:href="#Q" opacity=".9"/><use xlink:href="#Q" fill="none" class="F H"/><g fill="#fff"><path d="M121.951 90.068c-.157.695-1.008.399-.854-.298.153-.673.562-1.086.817-1.679.276-.633 1.039-.067.762.567-.211.489-.605.865-.725 1.41h0zm1.356-1.108c-.234.348-.542 1.638-.675 2.06-.211.672.642.961.851.298.072-.229.32-1.373.449-1.563.368-.547-.252-1.345-.625-.795h0zm1.839 3.321c.46-.676.414-1.45.403-2.292-.007-.723-.889-.724-.882 0 .008.465.115 1.114-.146 1.498-.371.544.25 1.342.625.794h0zm.899-2.432c.009.697.074 1.377.236 2.044.17.69 1.021.396.854-.298-.143-.576-.201-1.144-.205-1.746-.008-.724-.89-.724-.885 0h0z" opacity=".5"/><path d="M130.746 82.614c-.868.663-2.174.066-2.916-1.334s-.63-3.077.243-3.738c.867-.667 2.174-.068 2.909 1.333.743 1.402.636 3.075-.236 3.739z" opacity=".8"/></g><path d="M127.479 60.133c-10.453-.915-19.903 9.495-21.106 23.249s6.296 25.646 16.749 26.561 19.903-9.495 21.106-23.249-6.294-25.646-16.749-26.561zm-.913 29.983c-9.553.818-13.62-.758-13.903-3.902s3.407-6.987 12.88-7.482c8.432-.44 13.27 1.273 13.516 4.419.215 2.761-1.682 6.039-12.493 6.965z" class="B"/><path d="M124.159 70.885c-9.62-.882-17.976 4.643-18.673 12.342s7.218 13.54 16.834 14.425c9.619.88 19.286-4.747 19.882-12.458.819-10.547-8.423-13.423-18.043-14.309zm2.407 19.231c-9.553.818-13.62-.758-13.903-3.902s3.407-6.987 12.88-7.482c8.432-.44 13.27 1.273 13.516 4.419.215 2.761-1.682 6.039-12.493 6.965z" fill="url(#I)"/><use xlink:href="#P" fill="url(#J)"/><path d="M112.045 81.529s1.063-1.675 2.082-2.366 3.59-1.279 3.59-1.279-2.26.929-3.285 1.602-2.387 2.043-2.387 2.043zm25.116-3.078c1.164.776 2.813 2.501 2.813 2.501s-.714-1.61-2.448-2.685c-1.889-1.169-4.546-1.136-4.546-1.136s3.093.594 4.181 1.32z" class="C"/><path d="M112.975 87.32c-3.938-5.489 4.548-9.17 11.685-9.764 14.733-1.227 17.195 5.648 13.992 7.583 2.204-5.833-7.253-6.425-13.409-6.209-6.043.212-13.515 2.652-12.268 8.39zm4.264 3.284c5.376-.04 8.619-.104 13.408-.382 2.85-.165 5.406-1.528 6.943-3.226-2.668 1.241-4.717 2.363-6.996 2.467-4.945.225-7.902.589-13.196.504l-3.021-.956 2.862 1.593z"/><path d="M141 113.974c.035 22.622-18.292 40.994-40.938 41.025-22.642.037-41.028-18.273-41.063-40.9-.035-22.62 18.292-41.064 40.937-41.1s41.031 18.35 41.064 40.975z" fill="url(#A)"/><path d="M137.5 53.999c0 20.711-16.789 37.5-37.499 37.5S62.5 74.71 62.5 53.999s16.79-37.5 37.501-37.5 37.499 16.789 37.499 37.5z" fill="url(#B)"/><path d="M52.488 73.87c7.475-9.383 20.338-7.822 30.878-6.314 2.681.384 5.441.672 8.07 1.336 1.884.475 3.365 2.622 1.851 4.356-.708.825-2.253.672-3.207.652-12.621-.255-26.887-7.513-37.592-.03zm95.089-.38c-2.164-1.448-4.454-2.47-7.043-2.889-9.497-1.54-27.586 4.79-32.341 3.45-2.912-.822-2.323-3.739-1.035-4.458.775-.433.99-.422 7.909-1.612 11.757-2.02 24.921-3.626 32.51 5.509z" class="G"/><path d="M96.831 88.524s-1.399 11.117-2.026 13.281c-1.379 4.752-6.168 11.417-5.239 14.429 1.859 6.022 7.537 4.493 10.524 4.471 2.763-.022 8.072 1.552 9.162-2.37.352-1.266-.441-4.466-.441-4.466s-2.644 3.112-8.875 2.767c-1.778-.099-4.671-2.096-4.704-4.912-.043-3.817 1.802-7.035 2.205-10.824.304-2.878-.606-12.376-.606-12.376z" fill="#673620"/><path d="M105.194 118.969c1.075 0 1.366.326 1.366.729s-.335 1.026-1.366.73c-1.134-.323-3.113-.175-3.113-.175s2.036-1.284 3.113-1.284zm-10.272 0c-1.077.001-1.366.328-1.366.733s.323.983 1.366.729c1.15-.282 3.112-.175 3.112-.175s-2.035-1.283-3.112-1.287zm13.888-5.1s1.489 1.933 1.18 3.975c-.301 1.983-3.31 2.861-3.31 2.861s2.089-1.516 2.342-3.356c.118-.863-.212-3.48-.212-3.48zm-18.383-1.986s-1.086 2.704-.772 4.352c.571 2.976 3.704 4.164 3.704 4.164s-1.955-2.039-2.65-3.842c-.761-1.97-.282-4.674-.282-4.674z" class="C"/><path d="M105.141 115.311c1.043-.889 1.148-1.396.932-1.729s-.841-.545-1.714.528c-.963 1.18-3.056 2.054-3.056 2.054s2.795.034 3.838-.853z" fill="#855844"/><g class="G"><path d="M100 18.13h0 0 0z"/><path d="M100 18.13h0 0 0z"/><path d="M158.43 41.325C140-4.765 100 .405 100 .405s-40-5.169-58.43 40.92c-9.245 23.12 2.158 50.324 2.158 50.324h5.826c-5.094-21.752.796-17.662 1.176-21.722.118-1.255-.3-3.367-.421-4.622-.592-6.112 1.982-18.029 5.245-23.173 1.603-2.526 5.369-6.659 8.174-7.699 9.97-3.694 20.044.715 22.854 1.421 4.461 1.12 22.373 1.12 26.836 0 3.343-.839 13.182-4.905 22.854-1.321 2.806 1.04 6.871 4.972 8.474 7.499 3.263 5.144 5.537 16.16 4.945 22.272-.121 1.255-.539 4.367-.422 5.623.107 1.147 2.617 3.689 2.898 4.807 1.16 4.612-1.722 16.915-1.722 16.915h5.825c.001 0 11.406-27.204 2.16-50.324z"/></g><path d="M154.938 31.163C136.178-3.114 101.979-.631 100-.455c-1.979-.176-36.177-2.659-54.938 31.618-14.492 26.478-3.492 56.974-2.155 60.449.076.197 1.576.038 1.576.038-.006-.015-.104-.392-.166-.55-1.209-3.12-12.189-33.18 2.061-59.216C65.111-2.342 99.595 1.007 99.94 1.046l.06-.542.06.542c.345-.039 34.829-3.388 53.563 30.837 14.563 26.61 2.773 57.423 1.996 59.383-.021.055-.107.375-.111.383 0 0 1.506.169 1.575-.011 1.291-3.344 12.384-33.929-2.145-60.475z"/><path d="M100 18.13h0 0 0z" fill="#26120b"/></g></svg>